<svg xmlns="http://www.w3.org/2000/svg" height="114.49" width="181.268"><path d="M176.678 1.437L4.5 1.577a3.046 3.046 0 00-3.036 3.04l.086 105.4a3.046 3.046 0 003.04 3.035l172.179-.139a3.048 3.048 0 003.035-3.041l-.085-105.4a3.05 3.05 0 00-3.041-3.035zM48.146 37.563l.011 13.008V58.458a2.027 2.027 0 01-2.023 2.027l-26.288.021a2.028 2.028 0 01-2.026-2.024l-.012-13.007v-7.888a2.028 2.028 0 012.023-2.027l26.288-.021a2.029 2.029 0 012.026 2.024zM174.52 89.201a18.372 18.372 0 00-27.191 8.723 12.3 12.3 0 01-21.012-8.684 18.374 18.374 0 0027.192-8.722 12.3 12.3 0 0121.011 8.683z" fill="#85c3e9"/><path d="M176.769 112.915a3.048 3.048 0 003.035-3.041l-.085-105.4a3.05 3.05 0 00-3.041-3.035l-34.831.028c-21.174 21.96-21.226 45.411-35.024 55.261-15.675 11.189-57.963 24.979-71.486 56.3zm-50.45-23.676a18.374 18.374 0 0027.192-8.722 32.507 32.507 0 01-6.181 17.406 12.3 12.3 0 01-21.012-8.684z" fill="#70b1de"/><path d="M1.549 108.685v1.334a3.046 3.046 0 003.04 3.035l172.179-.139a3.048 3.048 0 003.035-3.041v-1.334z" fill="#70b1de"/><path d="M162.209 77.918a11.293 11.293 0 107.986 3.3 11.28 11.28 0 00-7.986-3.3z" fill="#ed9b42"/><path d="M149.914 89.22a11.294 11.294 0 10-3.3 7.987 11.306 11.306 0 003.3-7.987z" fill="#fdbe2a"/><path d="M18.835 56.221v2.26a1.014 1.014 0 001.014 1.012l7.413-.006v-3.272zM18.833 51.097h8.426v4.108h-8.426zM28.275 56.21h9.437v3.273h-9.437zM38.726 59.478l7.413-.006a1.015 1.015 0 001.012-1.013v-2.26l-8.426.006zM38.721 51.081h8.426v4.108h-8.426zM28.259 36.562h9.437v3.273h-9.437zM27.245 36.567l-7.413.006a1.015 1.015 0 00-1.013 1.014v2.26l8.427-.007zM18.828 45.977h8.426v4.108h-8.426zM18.824 40.856h8.426v4.108h-8.426zM46.12 36.552l-7.413.006v3.273l8.426-.007v-2.26a1.014 1.014 0 00-1.013-1.012zM38.717 45.96h8.426v4.108h-8.426z" fill="#e8a91b"/><path d="M28.273 55.201l9.438-.007-.008-9.736a.506.506 0 01.506-.507l8.927-.008v-4.108l-18.875.016z" fill="#e8a91b"/><text fill="#3e4147" font-family="ClaireHand-Bold, Claire Hand" font-size="11.901" font-weight="700" transform="translate(18.352 73.769)"><tspan x="0" y="0">5ooo</tspan><tspan y="0">1234</tspan><tspan y="0">5678</tspan><tspan y="0">91o1</tspan></text><text fill="#3e4147" font-family="ClaireHand-Bold, Claire Hand" font-size="10.556" font-weight="700" transform="translate(18.373 98.479)"><tspan x="0" y="0">PENNY WISE</tspan></text><path d="M37.468 108.655q-1.159 2.13-2.132 4.374l141.433-.114a3.048 3.048 0 003.035-3.041v-1.334z" fill="#4495d7"/><g fill="none" stroke="#3e4147" stroke-linecap="round" stroke-linejoin="round" stroke-width="2" transform="translate(-8222.78 -1289.499)"><rect height="112.49" rx="2.831" width="179.267" x="8223.78" y="1290.499"/><rect height="23.933" rx=".566" width="29.326" x="8241.103" y="1325.555"/><path d="M8250.531 1325.559l.019 23.933M8260.988 1334.956l.012 14.528M8260.98 1325.551l.003 4.285M8241.097 1329.852l29.326-.024M8260.988 1334.957l9.438-.008M8241.101 1334.973l9.438-.008M8260.992 1340.078l9.438-.008M8241.104 1340.094l9.438-.008M8241.108 1345.215l29.326-.024"/><circle cx="8361.402" cy="1378.728" r="11.798"/><circle cx="8384.998" cy="1378.709" r="11.798"/></g></svg>
